<svg id="Layer_1" data-name="Layer 1" xmlns="http://www.w3.org/2000/svg" width="596.32" height="28.39" viewBox="0 0 596.32 28.39">
  <defs>
    <style>
      .cls-1 {
        fill: #31519c;
      }
    </style>
  </defs>
  <g>
    <path class="cls-1" d="M0,13.93c0,6.58,1.33,14.46,11.49,14.46H36.33V10.75H16.88V18h12v3.41H13.12c-5.89,0-5-5.72-5-7.4,0-4.19.78-6.47,4.68-6.47H36.33V0H12.89C3.64,0,0,5.47,0,13.93Z"/>
    <polygon class="cls-1" points="43.39 28.39 75.03 28.39 75.03 21.45 51.3 21.45 51.3 18.05 75.03 18.05 75.03 11.17 51.3 11.17 51.3 8.17 75.03 8.17 75.03 0 43.39 0 43.39 28.39"/>
    <polygon class="cls-1" points="108.8 20.92 92.86 0 82.08 0 82.08 28.39 89.46 28.39 89.46 7.46 105.4 28.39 116.18 28.39 116.18 0 108.8 0 108.8 20.92"/>
    <polygon class="cls-1" points="124.18 28.39 155.82 28.39 155.82 21.45 132.09 21.45 132.09 18.05 155.82 18.05 155.82 11.17 132.09 11.17 132.09 8.17 155.82 8.17 155.82 0 124.18 0 124.18 28.39"/>
    <path class="cls-1" d="M198.27,10.11c0-3.94-.08-10.11-9.49-10.11h-25.9V28.39h7.62V20.1h11.83L189,28.39h9.84l-7.09-9.11c5.19-.78,6.56-4.46,6.56-9.17Zm-11.66,3H170.49V7.8h16.23c2.17,0,3.7.65,3.7,2.41s-.36,2.94-3.81,2.94Z"/>
    <polygon class="cls-1" points="252.62 0 244.71 0 244.71 28.39 273.18 28.39 273.18 21.45 252.62 21.45 252.62 0"/>
    <path class="cls-1" d="M215.52,0,199.58,28.39h8.67l3.13-5.59h18.55L233,28.39h8.67L225.77,0Zm-.23,15.8,5.35-9.55L226,15.8Z"/>
    <path class="cls-1" d="M320.53,0H297.1V28.39h24.84c9.54,0,11.49-6,11.49-14.46S329.79,0,320.53,0Zm-.23,21.45H304.6V7.58h16c4.38,0,4.69,2.75,4.69,6.47,0,3.4.08,7.4-5,7.4Z"/>
    <polygon class="cls-1" points="401.65 20.92 385.72 0 374.93 0 374.93 28.39 382.32 28.39 382.32 7.46 398.25 28.39 409.04 28.39 409.04 0 401.65 0 401.65 20.92"/>
    <path class="cls-1" d="M428.41,0,412.47,28.39h8.67l3.13-5.59h18.55l3.1,5.59h8.68L438.66,0Zm-.23,15.8,5.35-9.55,5.36,9.55Z"/>
    <polygon class="cls-1" points="352.69 12.22 342.57 0 332.26 0 348.55 18.57 348.55 28.39 356.64 28.39 356.64 18.57 372.92 0 362.61 0 352.69 12.22"/>
    <polygon class="cls-1" points="479.08 19.77 469.71 0 457.52 0 457.52 28.39 464.91 28.39 464.91 6.73 475.69 28.39 482.49 28.39 493.27 6.73 493.27 28.39 500.65 28.39 500.65 0 488.46 0 479.08 19.77"/>
    <polygon class="cls-1" points="509.19 0 509.19 28.39 517.16 28.39 517.1 0 509.19 0"/>
    <path class="cls-1" d="M522.72,13.93c0,8.46,1.95,14.46,11.48,14.46h22.38V21.48l-20.74,0c-5.12,0-5-4-5-7.4,0-3.73.31-6.47,4.69-6.47h21.09V0h-21c-9.26,0-12.89,5.47-12.89,13.93Z"/>
    <path class="cls-1" d="M588,11.11H570.83c-1.22,0-2.6-.35-2.6-1.71s1.38-1.7,2.6-1.7l24.56,0V.77H569c-6.74,0-8.38,3.46-8.38,8.63S562.22,18,569,18h17.11c1.23,0,2.61.35,2.61,1.71s-1.38,1.7-2.61,1.7l-24.55,0v6.9H588c6.73,0,8.37-3.46,8.37-8.63s-1.64-8.64-8.37-8.64Z"/>
  </g>
</svg>
